<?xml version="1.0" encoding="UTF-8"?>
<svg version="1.1" xmlns="http://www.w3.org/2000/svg" width="512" height="512">
<path d="M0 0 C2.98275268 2.22832256 5.9121079 4.50850156 8.79101562 6.86962891 C9.32388184 7.30057861 9.85674805 7.73152832 10.40576172 8.17553711 C15.09377146 12.17670592 18.31839187 16.30025567 19.05664062 22.55322266 C19.01023437 23.58576172 18.96382813 24.61830078 18.91601562 25.68212891 C18.87992187 26.73271484 18.84382813 27.78330078 18.80664062 28.86572266 C18.76023437 29.65076172 18.71382813 30.43580078 18.66601562 31.24462891 C19.478125 31.47021484 20.29023438 31.69580078 21.12695312 31.92822266 C25.53878212 33.56926722 29.30341362 35.82959224 33.29101562 38.30712891 C34.08789795 38.79955078 34.88478027 39.29197266 35.70581055 39.79931641 C56.69893784 52.92823714 74.872472 69.4065901 89.66601562 89.24462891 C90.29121094 90.07478516 90.91640625 90.90494141 91.56054688 91.76025391 C115.66601562 124.95466989 115.66601562 124.95466989 115.66601562 140.24462891 C116.82359375 140.19822266 117.98117187 140.15181641 119.17382812 140.10400391 C120.71286468 140.06646643 122.25192933 140.03006839 123.79101562 139.99462891 C124.5515625 139.96111328 125.31210937 139.92759766 126.09570312 139.89306641 C131.45223795 139.80071236 134.48958355 140.58873764 138.66601562 144.24462891 C143.97225987 149.97691311 143.23105189 156.19082545 143.18359375 163.68212891 C143.18901862 165.05257917 143.19614333 166.42302359 143.20483398 167.79345703 C143.2230273 171.50427626 143.21601665 175.21464931 143.20331764 178.92547607 C143.19316912 182.81442439 143.20258845 186.70333529 143.2088623 190.59228516 C143.21613334 197.12230263 143.20656538 203.65213896 143.1875 210.18212891 C143.16573216 217.72468075 143.17278393 225.26680006 143.19480562 232.80934143 C143.21297522 239.29276728 143.21551037 245.77606314 143.20505095 252.25950623 C143.19882453 256.12847989 143.19795674 259.99725044 143.2111969 263.86621094 C143.22277767 267.50419293 143.21468988 271.1416189 143.19161987 274.77954102 C143.1838341 276.74641156 143.19566972 278.71332929 143.20812988 280.68017578 C143.10483148 291.46452857 143.10483148 291.46452857 138.66601562 296.24462891 C134.2120872 299.9937752 131.30537001 300.69843182 125.54492188 300.46728516 C124.18362155 300.44767184 122.82228964 300.43015823 121.4609375 300.41455078 C119.34154164 300.3691334 117.22670118 300.30704342 115.10913086 300.20727539 C110.48164555 300.00996075 106.17758447 300.02091446 101.66601562 301.24462891 C98.32358859 304.47823115 96.5839271 308.05175384 94.66601562 312.24462891 C71.21534512 345.96266829 39.79517761 370.30895594 1.66601562 385.24462891 C1.00424316 385.50614746 0.3424707 385.76766602 -0.33935547 386.03710938 C-17.08938769 392.51678627 -36.06354304 396.3033773 -54.02148438 396.48291016 C-54.83342758 396.49265869 -55.64537079 396.50240723 -56.48191833 396.51245117 C-74.41809389 396.68345002 -91.80773682 396.56583388 -109.33398438 392.24462891 C-110.11660645 392.0520752 -110.89922852 391.85952148 -111.70556641 391.66113281 C-116.65650478 390.39672632 -121.50156625 388.90176609 -126.33398438 387.24462891 C-127.33002686 386.90842529 -127.33002686 386.90842529 -128.34619141 386.56542969 C-169.14894164 372.60996334 -203.66449651 345.14523969 -227.33398438 309.24462891 C-227.7116394 308.23432617 -227.7116394 308.23432617 -228.09692383 307.20361328 C-229.24274903 304.59681035 -230.14870439 303.09642324 -232.33398438 301.24462891 C-237.46715154 300.17098959 -242.55948468 300.34634167 -247.77148438 300.49462891 C-249.88774631 300.53374293 -252.00252887 300.56097554 -254.11915588 300.56536865 C-256.04186134 300.5723863 -257.96432182 300.61694619 -259.88647461 300.66357422 C-265.14033209 300.02511948 -267.93760551 297.74829456 -271.47666931 293.93731689 C-274.71186398 288.86624339 -273.88822883 282.594937 -273.8515625 276.80712891 C-273.85698737 275.43667865 -273.86411208 274.06623422 -273.87280273 272.69580078 C-273.89099605 268.98498155 -273.8839854 265.2746085 -273.87128639 261.56378174 C-273.86113787 257.67483342 -273.8705572 253.78592253 -273.87683105 249.89697266 C-273.88410209 243.36695519 -273.87453413 236.83711886 -273.85546875 230.30712891 C-273.83370091 222.76457706 -273.84075268 215.22245775 -273.86277437 207.67991638 C-273.88094397 201.19649054 -273.88347912 194.71319467 -273.8730197 188.22975159 C-273.86679328 184.36077793 -273.86592549 180.49200737 -273.87916565 176.62304688 C-273.89074642 172.98506489 -273.88265863 169.34763891 -273.85958862 165.7097168 C-273.85180285 163.74284625 -273.86363847 161.77592852 -273.87609863 159.80908203 C-273.77294647 149.03999661 -273.77294647 149.03999661 -269.33398438 144.24462891 C-264.43643755 139.95750096 -260.65210018 139.72171194 -254.45898438 139.99462891 C-253.67523438 140.01267578 -252.89148438 140.03072266 -252.08398438 140.04931641 C-250.16678249 140.09607743 -248.25021723 140.16780888 -246.33398438 140.24462891 C-246.24890625 139.44541016 -246.16382813 138.64619141 -246.07617188 137.82275391 C-245.12339999 133.22939051 -243.39258213 129.25381442 -241.45898438 124.99462891 C-240.8644043 123.68268555 -240.8644043 123.68268555 -240.2578125 122.34423828 C-226.83526626 93.48056132 -205.77563935 68.21687896 -180.33398438 49.24462891 C-179.08875 48.30683594 -179.08875 48.30683594 -177.81835938 47.35009766 C-172.56296912 43.5336833 -167.03628816 40.18851536 -161.45898438 36.86962891 C-160.72059326 36.42804443 -159.98220215 35.98645996 -159.22143555 35.53149414 C-158.51865479 35.11971924 -157.81587402 34.70794434 -157.09179688 34.28369141 C-156.15037842 33.7299585 -156.15037842 33.7299585 -155.18994141 33.16503906 C-153.25533298 32.20562394 -151.44154645 31.68946151 -149.33398438 31.24462891 C-149.38039063 30.45958984 -149.42679687 29.67455078 -149.47460938 28.86572266 C-149.69550313 22.43613657 -149.77005777 17.27140659 -145.33398438 12.24462891 C-108.41543526 -26.6556316 -42.95679257 -31.11152133 0 0 Z " fill="#EF4B37" transform="translate(321.333984375,99.75537109375)"/>
<path d="M0 0 C2.98275268 2.22832256 5.9121079 4.50850156 8.79101562 6.86962891 C9.59031494 7.51605347 9.59031494 7.51605347 10.40576172 8.17553711 C15.09377146 12.17670592 18.31839187 16.30025567 19.05664062 22.55322266 C19.01023437 23.58576172 18.96382813 24.61830078 18.91601562 25.68212891 C18.87992187 26.73271484 18.84382813 27.78330078 18.80664062 28.86572266 C18.76023437 29.65076172 18.71382813 30.43580078 18.66601562 31.24462891 C19.478125 31.47021484 20.29023438 31.69580078 21.12695312 31.92822266 C25.53878212 33.56926722 29.30341362 35.82959224 33.29101562 38.30712891 C34.08789795 38.79955078 34.88478027 39.29197266 35.70581055 39.79931641 C56.69893784 52.92823714 74.872472 69.4065901 89.66601562 89.24462891 C90.29121094 90.07478516 90.91640625 90.90494141 91.56054688 91.76025391 C115.66601562 124.95466989 115.66601562 124.95466989 115.66601562 140.24462891 C-3.79398438 140.24462891 -123.25398438 140.24462891 -246.33398438 140.24462891 C-245.36829749 134.45050759 -243.84786622 130.2566804 -241.45898438 124.99462891 C-240.8644043 123.68268555 -240.8644043 123.68268555 -240.2578125 122.34423828 C-226.83526626 93.48056132 -205.77563935 68.21687896 -180.33398438 49.24462891 C-179.08875 48.30683594 -179.08875 48.30683594 -177.81835938 47.35009766 C-172.56296912 43.5336833 -167.03628816 40.18851536 -161.45898438 36.86962891 C-160.72059326 36.42804443 -159.98220215 35.98645996 -159.22143555 35.53149414 C-158.51865479 35.11971924 -157.81587402 34.70794434 -157.09179688 34.28369141 C-156.15037842 33.7299585 -156.15037842 33.7299585 -155.18994141 33.16503906 C-153.25533298 32.20562394 -151.44154645 31.68946151 -149.33398438 31.24462891 C-149.38039063 30.45958984 -149.42679687 29.67455078 -149.47460938 28.86572266 C-149.69550313 22.43613657 -149.77005777 17.27140659 -145.33398438 12.24462891 C-108.41543526 -26.6556316 -42.95679257 -31.11152133 0 0 Z " fill="#5AD6FE" transform="translate(321.333984375,99.75537109375)"/>
<path d="M0 0 C110.22 0 220.44 0 334 0 C327.2195122 12.43089431 327.2195122 12.43089431 323.375 17.3125 C322.95677979 17.84391602 322.53855957 18.37533203 322.10766602 18.92285156 C298.18439342 49.04097415 269.87484717 70.94737054 234 85 C233.00734131 85.39227783 233.00734131 85.39227783 231.99462891 85.79248047 C215.24459669 92.27215736 196.27044134 96.05874839 178.3125 96.23828125 C177.50055679 96.24802979 176.68861359 96.25777832 175.85206604 96.26782227 C157.91589048 96.43882111 140.52624755 96.32120498 123 92 C121.82606689 91.71116943 121.82606689 91.71116943 120.62841797 91.41650391 C115.6774796 90.15209741 110.83241813 88.65713719 106 87 C105.00395752 86.66379639 105.00395752 86.66379639 103.98779297 86.32080078 C60.13071821 71.32068615 22.51493677 40.52688619 0 0 Z " fill="#59D6FE" transform="translate(89,400)"/>
<path d="M0 0 C0.78095032 -0.00705963 1.56190063 -0.01411926 2.36651611 -0.02139282 C34.83347489 -0.24834147 34.83347489 -0.24834147 48.57421875 3.203125 C49.39519043 3.40180176 50.21616211 3.60047852 51.06201172 3.80517578 C83.13752711 11.74524866 110.87208432 27.25583562 134.57421875 50.203125 C135.31542969 50.89921875 136.05664062 51.5953125 136.8203125 52.3125 C139.7348703 55.4542505 140.53549089 58.97842468 140.609375 63.22265625 C140.12034671 69.46074882 137.60222918 73.32350557 133.01171875 77.578125 C127.71683376 80.08116154 122.17391798 80.37981585 116.5546875 78.54296875 C112.58559465 76.47330634 109.75935211 73.43753329 106.68359375 70.24609375 C81.41383058 45.77186016 44.33124955 33.0522926 9.57421875 33.203125 C-27.94015488 34.46018559 -61.53649722 47.61596606 -88.63671875 73.8203125 C-94.17778532 78.55427694 -98.67218413 79.77336955 -105.8046875 79.55078125 C-110.9610378 78.86685401 -113.502272 76.30135222 -116.73828125 72.453125 C-119.52160309 67.09265331 -119.81279426 63.17044112 -118.67578125 57.390625 C-109.45037763 36.40895483 -76.59464159 20.2333194 -56.42578125 12.203125 C-38.36571141 5.3273141 -19.43285973 0.11721407 0 0 Z " fill="#EF4A36" transform="translate(245.42578125,15.796875)"/>
<path d="M0 0 C0.28101563 0.59554688 0.56203125 1.19109375 0.8515625 1.8046875 C3.20315996 6.29991802 6.17527574 10.20536799 11 12 C14.09675833 12.30153169 14.09675833 12.30153169 17.59464741 12.25447559 C18.25900809 12.25768207 18.92336878 12.26088855 19.60786161 12.26419219 C21.84391149 12.27252281 24.07969564 12.26655731 26.31575012 12.26069641 C27.93113704 12.26371571 29.54652252 12.26760408 31.16190547 12.27228898 C35.60879522 12.28260647 40.05560468 12.28037764 44.50250113 12.27610838 C49.29539279 12.27364791 54.08826477 12.2826469 58.88114929 12.29014587 C68.27439393 12.30291429 77.66761001 12.30468386 87.06086186 12.30234561 C94.69467315 12.30056452 102.32847575 12.3023076 109.962286 12.30657005 C111.59035387 12.30746284 111.59035387 12.30746284 113.25131201 12.30837366 C115.45608976 12.30958538 117.66086751 12.31079951 119.86564525 12.31201603 C140.55636002 12.32290003 161.24705851 12.32072514 181.9377742 12.31463119 C200.87326748 12.30946244 219.8087093 12.32071484 238.7441924 12.33972941 C258.17718096 12.35909424 277.61014517 12.36736611 297.04314345 12.36360615 C307.95722915 12.3616919 318.87127105 12.36420338 329.78534889 12.37832069 C339.07762296 12.39021829 348.3698263 12.3916577 357.66210131 12.37953053 C362.40419126 12.37363016 367.14615175 12.37257429 371.88823318 12.38453293 C376.22899837 12.39535237 380.56952538 12.39233547 384.91027924 12.37827124 C386.48093318 12.3756134 388.05160556 12.37802484 389.62224147 12.38600711 C391.75772473 12.39610702 393.89237904 12.38769737 396.02782917 12.37473011 C397.21380579 12.37478513 398.39978242 12.37484014 399.62169772 12.37489682 C404.74520415 11.80633127 408.68804737 10.38286899 412.3125 6.5625 C413.72963627 4.41055233 414.87699617 2.30975897 416 0 C416.10845027 3.04263267 416.18752063 6.08136204 416.25 9.125 C416.28351563 9.9809375 416.31703125 10.836875 416.3515625 11.71875 C416.43795451 17.33423042 415.9004182 20.64754658 412 25 C407.56930699 28.47998577 404.70627888 29.5003208 399.09399414 29.50336456 C398.42027267 29.50917833 397.74655121 29.51499209 397.05241394 29.52098203 C394.7962955 29.53557271 392.54126663 29.52170232 390.28515625 29.50793457 C388.65082748 29.51254388 387.01650284 29.518897 385.38218689 29.52684355 C380.89219067 29.54355592 376.40253413 29.53528187 371.91253662 29.52289867 C367.06992277 29.51385831 362.22736782 29.52781287 357.38476562 29.53881836 C347.89851716 29.556619 338.41239519 29.55275671 328.92614174 29.5411678 C321.21751491 29.53213983 313.50892357 29.53090672 305.80029297 29.53526306 C304.15554631 29.53618246 304.15554631 29.53618246 302.47757244 29.53712043 C300.25016402 29.53839931 298.02275561 29.53969617 295.79534721 29.5410108 C274.90147539 29.55242112 254.00767372 29.53929578 233.1138134 29.51780933 C215.18000712 29.49993795 197.24630441 29.50304193 179.3125 29.52148438 C158.49416905 29.54288308 137.67589962 29.55132244 116.8575592 29.53903532 C114.63827516 29.5377611 112.4189911 29.53650362 110.19970703 29.53526306 C109.10773356 29.53464596 108.0157601 29.53402886 106.89069653 29.53339306 C99.18997409 29.52993716 91.48929062 29.53577367 83.78857422 29.54518127 C74.40589698 29.55639152 65.02335363 29.5533817 55.64069176 29.5320583 C50.85210169 29.52153479 46.06373497 29.51744821 41.27514648 29.53065491 C36.89311384 29.5425577 32.51151197 29.53605129 28.12951851 29.5147447 C26.54279571 29.51026965 24.95603665 29.51256513 23.36933708 29.52224785 C21.21437409 29.53439148 19.06089132 29.52195978 16.90600586 29.50336456 C15.70858261 29.50271515 14.51115936 29.50206574 13.27745056 29.50139666 C8.12927524 28.71380952 5.05509933 26.17737905 1.640625 22.3671875 C-0.57306783 17.82384651 -0.44477695 14.09930363 -0.25 9.125 C-0.23195312 8.24585938 -0.21390625 7.36671875 -0.1953125 6.4609375 C-0.14848379 4.3068168 -0.07674994 2.15326226 0 0 Z " fill="#E1322D" transform="translate(48,371)"/>
<path d="M0 0 C2.98275268 2.22832256 5.9121079 4.50850156 8.79101562 6.86962891 C9.59031494 7.51605347 9.59031494 7.51605347 10.40576172 8.17553711 C14.94015075 12.04559221 17.96893126 16.16975984 19.30273438 22.05322266 C19.40628276 27.4138428 18.94404743 30.63418806 15.41601562 34.80712891 C11.57080774 38.75914812 8.34321555 40.53314604 2.79101562 40.61962891 C1.96859375 40.64798828 1.14617187 40.67634766 0.29882812 40.70556641 C-5.4348073 39.70175486 -9.51556763 35.26750242 -13.70898438 31.49462891 C-29.50107968 18.01174329 -50.59261014 11.5735095 -71.21582031 13.04394531 C-81.55938894 14.02393764 -90.98593989 16.7251198 -100.33398438 21.24462891 C-101.26984375 21.68677734 -102.20570313 22.12892578 -103.16992188 22.58447266 C-109.32519288 25.69659147 -114.03845033 29.49619858 -119.06835938 34.18603516 C-124.30787253 38.94676521 -128.79831062 40.9536368 -135.97460938 40.62744141 C-141.15504233 39.78690758 -145.23368964 36.20078951 -148.41601562 32.14306641 C-150.406333 28.02692069 -150.00004635 23.66133111 -149.33398438 19.24462891 C-143.90028132 4.91941177 -124.72049583 -5.09141009 -111.39648438 -11.13037109 C-75.60990052 -26.76297208 -31.74729291 -22.99302442 0 0 Z " fill="#EF4A37" transform="translate(321.333984375,99.75537109375)"/>
<path d="M0 0 C4.05888724 0.84560151 5.40155685 2.43367421 8 5.625 C8.6257782 8.81886292 8.6257782 8.81886292 8.62768555 12.46313477 C8.63495667 13.1304361 8.64222778 13.79773743 8.64971924 14.48526001 C8.66824347 16.67952247 8.65227447 18.87214436 8.63671875 21.06640625 C8.64476218 22.59668937 8.65528221 24.12696129 8.66816711 25.6572113 C8.69668533 29.67860276 8.69729627 33.69947849 8.69030762 37.72094727 C8.68297751 44.16060703 8.71433777 50.60010058 8.75275612 57.03962517 C8.76160107 59.28651136 8.75630757 61.53303708 8.74919128 63.77992249 C8.75257607 65.15870258 8.75632543 66.53748183 8.76049805 67.91625977 C8.75874069 69.11807388 8.75698334 70.319888 8.75517273 71.55812073 C8.99142864 74.51762908 9.3519477 76.18535157 11 78.625 C13.77100394 80.01050197 15.9334706 79.8127467 19 79.625 C22.24849977 77.90273504 22.24849977 77.90273504 23 74.625 C23.09287469 72.42815637 23.12513056 70.22859096 23.12597656 68.02978516 C23.1278447 67.36438217 23.12971283 66.69897919 23.13163757 66.01341248 C23.13563795 64.56965141 23.13771608 63.12588402 23.13809967 61.68211746 C23.14151944 58.61074429 23.16288602 55.53958201 23.18333054 52.4682827 C23.2213334 46.75128751 23.2526144 41.0345188 23.25048828 35.31738281 C23.24970085 31.33897286 23.27307544 27.36133693 23.3123703 23.38312912 C23.32282606 21.86894588 23.32435736 20.35467325 23.31671906 18.84047318 C23.30708522 16.71913292 23.32829474 14.60013289 23.35644531 12.47900391 C23.36009094 11.27337799 23.36373657 10.06775208 23.36749268 8.82559204 C24.18174728 4.7053286 25.75727126 3.21044311 29 0.625 C32 0 32 0 35 0.625 C38.24012226 3.20861091 39.81874362 4.69989901 40.6257782 8.81886292 C40.62640762 10.02147263 40.62703705 11.22408234 40.62768555 12.46313477 C40.63495667 13.1304361 40.64222778 13.79773743 40.64971924 14.48526001 C40.66824347 16.67952247 40.65227447 18.87214436 40.63671875 21.06640625 C40.64476218 22.59668937 40.65528221 24.12696129 40.66816711 25.6572113 C40.69668533 29.67860276 40.69729627 33.69947849 40.69030762 37.72094727 C40.68297751 44.16060703 40.71433777 50.60010058 40.75275612 57.03962517 C40.76160107 59.28651136 40.75630757 61.53303708 40.74919128 63.77992249 C40.75257607 65.15870258 40.75632543 66.53748183 40.76049805 67.91625977 C40.75874069 69.11807388 40.75698334 70.319888 40.75517273 71.55812073 C40.99142864 74.51762908 41.3519477 76.18535157 43 78.625 C45.77100394 80.01050197 47.9334706 79.8127467 51 79.625 C54.24849977 77.90273504 54.24849977 77.90273504 55 74.625 C55.09287469 72.42815637 55.12513056 70.22859096 55.12597656 68.02978516 C55.1278447 67.36438217 55.12971283 66.69897919 55.13163757 66.01341248 C55.13563795 64.56965141 55.13771608 63.12588402 55.13809967 61.68211746 C55.14151944 58.61074429 55.16288602 55.53958201 55.18333054 52.4682827 C55.2213334 46.75128751 55.2526144 41.0345188 55.25048828 35.31738281 C55.24970085 31.33897286 55.27307544 27.36133693 55.3123703 23.38312912 C55.32282606 21.86894588 55.32435736 20.35467325 55.31671906 18.84047318 C55.30708522 16.71913292 55.32829474 14.60013289 55.35644531 12.47900391 C55.36009094 11.27337799 55.36373657 10.06775208 55.36749268 8.82559204 C56.18174728 4.7053286 57.75727126 3.21044311 61 0.625 C64 0 64 0 67 0.625 C70.28566207 3.23213889 71.82486136 4.72371158 72.63491821 8.89237976 C72.63889618 10.13018692 72.64287415 11.36799408 72.64697266 12.64331055 C72.65573425 13.33023483 72.66449585 14.01715912 72.67352295 14.72489929 C72.69546273 16.9878224 72.68097821 19.24877693 72.6640625 21.51171875 C72.66743419 23.09487785 72.67228976 24.67803441 72.67855835 26.26118469 C72.68592388 29.57924038 72.6752426 32.8966224 72.65185547 36.21459961 C72.62348335 40.44356593 72.63969827 44.67093742 72.66971779 48.89984417 C72.68789999 52.17128722 72.68198129 55.44236069 72.66907883 58.71381569 C72.66576875 60.27135219 72.66974648 61.82892345 72.68147659 63.3864193 C72.73927638 73.224566 72.26833225 81.89273861 65.25942993 89.5188446 C59.25525226 95.1895565 52.88544655 97.18679958 44.71875 96.99609375 C41.24076027 96.52136814 38.71356676 95.34099833 35.75390625 93.5 C33.7301254 92.32738917 33.7301254 92.32738917 30 92.625 C27.98244719 93.48990647 27.98244719 93.48990647 25.9375 94.625 C19.97558962 97.37061662 14.15759781 97.74207699 7.8046875 96.03515625 C1.93759779 93.5387671 -2.42638829 88.8092536 -6 83.625 C-7.81498002 79.10755131 -8.26511876 75.26585515 -8.30639648 70.41381836 C-8.31472 69.71871658 -8.32304352 69.02361481 -8.33161926 68.30744934 C-8.35557203 66.02652273 -8.36447067 63.74588248 -8.37109375 61.46484375 C-8.38006745 59.8711387 -8.38918943 58.27743447 -8.39845276 56.68373108 C-8.41490246 53.35090085 -8.42263619 50.01817064 -8.42553711 46.68530273 C-8.43093372 42.41902827 -8.46868242 38.15369487 -8.51428127 33.88768673 C-8.54404036 30.59937609 -8.55126031 27.31129317 -8.55226326 24.02285957 C-8.55646364 22.44998399 -8.56889083 20.87710762 -8.58978081 19.30436516 C-8.61668973 17.10446721 -8.61187538 14.90676648 -8.59936523 12.70678711 C-8.60443588 11.45691513 -8.60950653 10.20704315 -8.61473083 8.91929626 C-7.67132894 3.86367651 -5.04979274 1.05204015 0 0 Z " fill="#D7E4EE" transform="translate(264,263.375)"/>
<path d="M0 0 C40.74475817 -1.79463046 82.2867265 16.62676715 112.18212891 43.56079102 C114.48608051 45.67567652 116.75309779 47.82465518 119 50 C119.74121094 50.69609375 120.48242188 51.3921875 121.24609375 52.109375 C124.16065155 55.2511255 124.96127214 58.77529968 125.03515625 63.01953125 C124.54612796 69.25762382 122.02801043 73.12038057 117.4375 77.375 C112.14261501 79.87803654 106.59969923 80.17669085 100.98046875 78.33984375 C97.0113759 76.27018134 94.18513336 73.23440829 91.109375 70.04296875 C65.6793647 45.41353285 30.59123068 34.66810503 -4 33 C-3.10474609 32.56300781 -3.10474609 32.56300781 -2.19140625 32.1171875 C2.95791575 29.49204295 7.56888466 26.77294045 9.6875 21.1875 C10.53195828 15.27629205 10.28153436 11.09203608 7 6 C4.52338502 3.75149517 4.52338502 3.75149517 2 2 C1.34 1.34 0.68 0.68 0 0 Z " fill="#E1312C" transform="translate(261,16)"/>
<path d="M0 0 C2.52048433 0.52369156 3.72423011 0.99465555 5.44433594 2.92871094 C5.87004883 3.60708008 6.29576172 4.28544922 6.734375 4.984375 C7.24734131 5.79664551 7.76030762 6.60891602 8.28881836 7.44580078 C8.8741333 8.41243652 9.45944824 9.37907227 10.0625 10.375 C10.40048615 10.93266052 10.73847229 11.49032104 11.08670044 12.06488037 C13.8822424 16.69063104 16.63074439 21.34370529 19.375 26 C20.99526178 28.74267957 22.61682759 31.48458744 24.23828125 34.2265625 C24.63379181 34.89600891 25.02930237 35.56545532 25.4367981 36.25518799 C29.61118719 43.31564666 33.83330684 50.34727192 38.0625 57.375 C38.06392502 56.7346431 38.06535004 56.09428619 38.06681824 55.43452454 C38.08651147 48.76686827 38.14077753 42.10012794 38.21508789 35.43286133 C38.23827856 32.94497245 38.25266607 30.45698526 38.25805664 27.96899414 C38.2673378 24.39146573 38.30831411 20.81548621 38.35546875 17.23828125 C38.34956978 15.57083611 38.34956978 15.57083611 38.34355164 13.8697052 C38.48918352 6.15405234 38.48918352 6.15405234 41.41918945 2.17260742 C44.0625 0.375 44.0625 0.375 47.0625 -0.25 C51.16727426 0.6051613 52.47663469 2.09819212 55.0625 5.375 C55.54726306 8.33490174 55.72865831 10.71352946 55.67773438 13.66601562 C55.68328339 14.48776779 55.6888324 15.30951996 55.69454956 16.15617371 C55.70633416 18.86513077 55.68208376 21.57241061 55.65625 24.28125 C55.6545385 26.1678459 55.65460498 28.05444419 55.65637207 29.94104004 C55.6547195 33.89207762 55.63603317 37.84254735 55.60449219 41.79345703 C55.56481483 46.85435472 55.56044735 51.91450882 55.56795502 56.97553253 C55.57102663 60.87036941 55.55889736 64.76503956 55.54182434 68.65983582 C55.5348001 70.52572076 55.53166911 72.39162461 55.53251648 74.25752258 C55.53071589 76.86668964 55.50931216 79.4749708 55.48242188 82.08398438 C55.48535248 82.85296555 55.48828308 83.62194672 55.49130249 84.41423035 C55.42017426 88.894141 54.845224 91.81675927 52.0625 95.375 C49.17388291 96.81930855 47.26602299 96.75188506 44.0625 96.375 C40.0969575 92.95648371 37.42869505 89.08467597 34.83984375 84.58984375 C34.45365372 83.93407852 34.06746368 83.27831329 33.66957092 82.60267639 C32.43918216 80.51007408 31.21927466 78.41159354 30 76.3125 C28.81026936 74.28011472 27.61835499 72.24902036 26.42642212 70.21792603 C25.6171721 68.83826084 24.80888677 67.45802936 24.0015564 66.07723999 C18.76510988 57.13089166 13.41064736 48.25485958 8.0625 39.375 C8.05663376 40.00282883 8.05076752 40.63065765 8.04472351 41.2775116 C7.98076226 47.8152682 7.89633517 54.3525338 7.80004883 60.88989258 C7.76680583 63.32927983 7.73877199 65.76874388 7.71606445 68.20825195 C7.68250783 71.71599032 7.63018951 75.22302525 7.57421875 78.73046875 C7.56463387 80.36510323 7.56463387 80.36510323 7.55485535 82.03276062 C7.36998227 91.56569283 7.36998227 91.56569283 4.0625 95.375 C1.25334526 96.77957737 -0.82560534 96.62395157 -3.9375 96.375 C-7.0734157 94.59515595 -7.77852736 93.85191793 -8.9375 90.375 C-9.05424426 87.67900157 -9.11556976 85.00786913 -9.13037109 82.31103516 C-9.13854858 81.48957504 -9.14672607 80.66811493 -9.15515137 79.82176208 C-9.17997058 77.10253628 -9.19651061 74.38336248 -9.2109375 71.6640625 C-9.21626118 70.73528667 -9.22158485 69.80651085 -9.22706985 68.8495903 C-9.25378367 63.93554256 -9.27316604 59.02152009 -9.28759766 54.10742188 C-9.30095037 50.03915998 -9.32882981 45.97139807 -9.36962891 41.90332031 C-9.41888996 36.99148799 -9.44371031 32.08011005 -9.45082474 27.16804123 C-9.45754459 25.29651302 -9.47278571 23.42499523 -9.49671555 21.55360794 C-9.52830209 18.93445052 -9.52841434 16.31705144 -9.52099609 13.69775391 C-9.53740143 12.92563065 -9.55380676 12.15350739 -9.57070923 11.35798645 C-9.52486518 7.40243853 -9.0761221 5.55637366 -6.64712524 2.37826538 C-3.9375 0.375 -3.9375 0.375 0 0 Z " fill="#D7E4EE" transform="translate(104.9375,263.625)"/>
<path d="M0 0 C1.15048828 -0.01611328 2.30097656 -0.03222656 3.48632812 -0.04882812 C13.31012383 -0.05445781 20.10956927 1.4971989 27.421875 8.36328125 C31.3888422 12.74274283 33.36748278 17.0856953 33.75 23 C33.57546356 26.47869178 33.15565589 27.35839299 31.0625 30.375 C27.68464787 32.65137861 26.17772009 32.9916864 22.1875 32.3125 C19.5089293 30.75542432 18.38278597 29.83185967 17.28125 26.90234375 C16.8848615 25.1316346 16.48902968 23.36080075 16.09375 21.58984375 C15.40339317 19.21017757 15.40339317 19.21017757 13.43359375 18.19116211 C9.32689633 16.58463993 5.04574541 16.94341349 0.6875 16.9375 C-0.73755859 16.90076172 -0.73755859 16.90076172 -2.19140625 16.86328125 C-7.59423267 16.81499149 -7.59423267 16.81499149 -12.4453125 18.9296875 C-14.23993403 22.05745646 -14.27812239 24.22055819 -14.1875 27.8125 C-14.17460937 28.9365625 -14.16171875 30.060625 -14.1484375 31.21875 C-13.83035249 34.14809106 -13.43018376 35.88023789 -11.8125 38.3125 C-9.34526104 39.54611948 -7.62512057 39.46974672 -4.8671875 39.5234375 C-3.37445313 39.56597656 -3.37445313 39.56597656 -1.8515625 39.609375 C0.23420903 39.66087553 2.32016865 39.70531232 4.40625 39.7421875 C12.41342073 39.98919534 19.20741095 40.98977418 25.4375 46.5 C26.06140625 47.02980469 26.6853125 47.55960937 27.328125 48.10546875 C32.40054847 54.12630753 33.89322893 59.92104823 33.75 67.6875 C33.73976807 68.52240967 33.72953613 69.35731934 33.71899414 70.2175293 C33.42508986 78.7607357 31.12707161 84.84879764 24.8125 90.75 C17.42913285 96.84218718 9.94789077 96.80466062 0.75 96.75 C-1.03374023 96.7799707 -1.03374023 96.7799707 -2.85351562 96.81054688 C-11.29666641 96.80585884 -16.87453181 95.75040874 -23.2734375 90.1640625 C-27.97631077 84.69337319 -30.69147554 80.55168562 -31.25 73.25 C-30.8125 69.3125 -30.8125 69.3125 -28.6875 66.3125 C-25.8125 64.3125 -25.8125 64.3125 -22.8125 63.6875 C-18.65655427 64.55332203 -17.36671809 65.92988685 -14.8125 69.3125 C-13.88772262 71.66031844 -13.14562409 73.98607699 -12.48828125 76.421875 C-11.98636375 78.51378328 -11.98636375 78.51378328 -9.8125 79.3125 C-6.3595921 79.55234126 -2.89781801 79.49769312 0.5625 79.5 C1.5215625 79.51224609 2.480625 79.52449219 3.46875 79.53710938 C4.39429688 79.53904297 5.31984375 79.54097656 6.2734375 79.54296875 C7.1195459 79.54707764 7.9656543 79.55118652 8.83740234 79.55541992 C11.43395688 79.28702477 13.01961836 78.76127208 15.1875 77.3125 C16.30380207 73.96359379 16.35515424 71.33710739 16.375 67.8125 C16.38917969 66.6678125 16.40335937 65.523125 16.41796875 64.34375 C16.42299057 61.13487615 16.42299057 61.13487615 14.1875 58.3125 C11.1723551 57.3074517 9.07967311 57.17433919 5.92578125 57.13671875 C4.88873047 57.11287109 3.85167969 57.08902344 2.78320312 57.06445312 C0.61412514 57.02187158 -1.555203 56.99041306 -3.72460938 56.97070312 C-11.73310574 56.75800063 -17.18909756 55.47578785 -23.2734375 50.1640625 C-24.22089844 49.06191406 -24.22089844 49.06191406 -25.1875 47.9375 C-25.83460938 47.20789063 -26.48171875 46.47828125 -27.1484375 45.7265625 C-31.01484797 40.1175445 -31.17715241 34.5185668 -31.1875 27.9375 C-31.21199219 27.12539063 -31.23648437 26.31328125 -31.26171875 25.4765625 C-31.2961792 18.30878797 -29.39558468 13.22366879 -24.62890625 7.8515625 C-23.51322266 6.90410156 -23.51322266 6.90410156 -22.375 5.9375 C-21.63378906 5.29039062 -20.89257812 4.64328125 -20.12890625 3.9765625 C-13.82584737 -0.55143595 -7.47112099 -0.02071858 0 0 Z " fill="#D7E4ED" transform="translate(382.8125,263.6875)"/>
<path d="M0 0 C1.56687561 -0.01395813 1.56687561 -0.01395813 3.16540527 -0.02819824 C4.28322388 -0.01180298 5.40104248 0.00459229 6.55273438 0.02148438 C8.28892029 0.02142395 8.28892029 0.02142395 10.06018066 0.0213623 C12.50453122 0.02671784 14.94888131 0.0443017 17.39306641 0.07324219 C21.13302271 0.11508377 24.8711773 0.11431072 28.61132812 0.10742188 C30.98764271 0.11791492 33.36394803 0.13085363 35.74023438 0.14648438 C36.85805298 0.14668579 37.97587158 0.14688721 39.12756348 0.14709473 C40.69443909 0.17096252 40.69443909 0.17096252 42.29296875 0.1953125 C43.66600159 0.20794128 43.66600159 0.20794128 45.06677246 0.2208252 C48.18706664 0.69788337 50.09531072 1.78450064 52.64648438 3.61523438 C54.05106174 6.42438911 53.89543595 8.50333972 53.64648438 11.61523438 C51.86664033 14.75115008 51.12340231 15.45626173 47.64648438 16.61523438 C46.24992979 16.7011274 44.8496266 16.73296153 43.45043945 16.72875977 C42.60979446 16.72868423 41.76914948 16.7286087 40.9030304 16.72853088 C39.99981552 16.7233696 39.09660065 16.71820831 38.16601562 16.71289062 C37.23802658 16.71147568 36.31003754 16.71006073 35.35392761 16.70860291 C32.38891379 16.70300374 29.42397538 16.69045142 26.45898438 16.67773438 C24.44921984 16.67271927 22.43945412 16.66815638 20.4296875 16.6640625 C15.50190067 16.65388533 10.57427698 16.6343097 5.64648438 16.61523438 C5.64648438 24.53523438 5.64648438 32.45523437 5.64648438 40.61523438 C7.46535156 40.58042969 9.28421875 40.545625 11.15820312 40.50976562 C13.55012097 40.48162542 15.94204881 40.45432551 18.33398438 40.42773438 C19.53216797 40.40259766 20.73035156 40.37746094 21.96484375 40.3515625 C23.12177734 40.34189453 24.27871094 40.33222656 25.47070312 40.32226562 C26.53377686 40.30655518 27.59685059 40.29084473 28.69213867 40.2746582 C32.07125768 40.66420213 33.92639401 41.60727984 36.64648438 43.61523438 C38.05106174 46.42438911 37.89543595 48.50333972 37.64648438 51.61523438 C35.86664033 54.75115008 35.12340231 55.45626173 31.64648438 56.61523438 C29.65445408 56.69815391 27.65974724 56.72261615 25.66601562 56.71289062 C24.50263672 56.70966797 23.33925781 56.70644531 22.140625 56.703125 C20.92568359 56.69474609 19.71074219 56.68636719 18.45898438 56.67773438 C17.23244141 56.67322266 16.00589844 56.66871094 14.7421875 56.6640625 C11.71026572 56.65226514 8.67836897 56.63432952 5.64648438 56.61523438 C5.64648438 64.53523438 5.64648438 72.45523438 5.64648438 80.61523438 C8.62035156 80.58042969 11.59421875 80.545625 14.65820312 80.50976562 C17.54417969 80.48635732 20.43014561 80.46814797 23.31616211 80.45043945 C25.31914009 80.43536972 27.32208517 80.41491028 29.32495117 80.38891602 C32.20695118 80.3524531 35.08851422 80.33548977 37.97070312 80.32226562 C38.86359543 80.30678177 39.75648773 80.29129791 40.67643738 80.27534485 C45.48121505 80.2740495 48.76929296 80.43331684 52.64648438 83.61523438 C54.05106174 86.42438911 53.89543595 88.50333972 53.64648438 91.61523438 C51.86664033 94.75115008 51.12340231 95.45626173 47.64648438 96.61523438 C45.93459667 96.71771848 44.21905607 96.76367839 42.50415039 96.77636719 C40.93220665 96.7907785 40.93220665 96.7907785 39.32850647 96.80548096 C38.19722824 96.80973083 37.06595001 96.81398071 35.90039062 96.81835938 C34.73773178 96.82405945 33.57507294 96.82975952 32.37718201 96.83563232 C29.91674714 96.84508288 27.45629961 96.85161652 24.99584961 96.85546875 C21.22747841 96.86518668 17.4596497 96.89621538 13.69140625 96.92773438 C11.30273762 96.93426317 8.91406508 96.93951413 6.52539062 96.94335938 C5.39613663 96.95570618 4.26688263 96.96805298 3.10340881 96.98077393 C2.05229416 96.97777283 1.0011795 96.97477173 -0.08178711 96.97167969 C-1.46719948 96.97714813 -1.46719948 96.97714813 -2.88059998 96.98272705 C-5.85244278 96.54109029 -7.19993397 95.68456894 -9.35351562 93.61523438 C-10.59329621 89.89589263 -10.52511695 86.42666602 -10.54638672 82.55126953 C-10.55456421 81.72980942 -10.5627417 80.9083493 -10.57116699 80.06199646 C-10.59598621 77.34277066 -10.61252624 74.62359686 -10.62695312 71.90429688 C-10.6322768 70.97552105 -10.63760048 70.04674522 -10.64308548 69.08982468 C-10.66979929 64.17577693 -10.68918166 59.26175446 -10.70361328 54.34765625 C-10.71696599 50.27939436 -10.74484544 46.21163245 -10.78564453 42.14355469 C-10.83490559 37.23172237 -10.85972594 32.32034442 -10.86684036 27.4082756 C-10.87356021 25.53674739 -10.88880134 23.6652296 -10.91273117 21.79384232 C-10.94431771 19.17468489 -10.94442997 16.55728581 -10.93701172 13.93798828 C-10.95341705 13.16586502 -10.96982239 12.39374176 -10.98672485 11.59822083 C-10.94163629 7.70785816 -10.48518363 5.79353576 -8.15164185 2.6335144 C-5.07231533 0.41240545 -3.73974157 -0.00839356 0 0 Z " fill="#D7E5EF" transform="translate(186.353515625,263.384765625)"/>
<path d="M0 0 C23.76 0 47.52 0 72 0 C66.87889632 23.04496654 57.75482985 46.40867722 40.17578125 62.734375 C38 64 38 64 35.46875 63.8828125 C23.65861394 59.65956764 16.94999235 45.42916243 11.875 34.875 C6.59506191 23.61461122 1.76640499 12.36483495 0 0 Z " fill="#23AAE6" transform="translate(220,400)"/>
<path d="M0 0 C25.49309027 -1.67167805 49.93781058 10.88868542 69.125 26.625 C69.92429932 27.27142456 69.92429932 27.27142456 70.73974609 27.9309082 C75.27413513 31.8009633 78.30291564 35.92513093 79.63671875 41.80859375 C79.74026713 47.1692139 79.2780318 50.38955916 75.75 54.5625 C71.90479212 58.51451921 68.67719993 60.28851714 63.125 60.375 C62.30257812 60.40335938 61.48015625 60.43171875 60.6328125 60.4609375 C54.89917707 59.45712596 50.81841674 55.02287352 46.625 51.25 C32.91306405 39.54310105 15.67363849 34.22974191 -2 32 C-1.195625 31.6596875 -1.195625 31.6596875 -0.375 31.3125 C3.87752183 28.96242215 7.24879038 26.57071103 9.375 22.125 C10.62553904 15.87230478 10.51091272 11.44796802 7 6 C4.52338502 3.75149517 4.52338502 3.75149517 2 2 C1.34 1.34 0.68 0.68 0 0 Z " fill="#E0322E" transform="translate(261,80)"/>
<path d="M0 0 C4.41995831 3.0768392 9.07411554 6.86307482 11.51953125 11.75390625 C12.0318114 17.36379374 12.28209158 22.20155129 9.76953125 27.31640625 C6.29038089 31.0854858 3.50299529 33.4406682 -1.75 33.9921875 C-7.60954347 34.16320336 -10.81638141 33.6406457 -15.48046875 29.75390625 C-19.67523832 26.51794115 -22.8640216 25.34853909 -28.29296875 25.3984375 C-32.30815358 26.05090504 -35.22646508 28.44817511 -38.48046875 30.75390625 C-43.98320507 34.52798692 -48.95942754 34.94338466 -55.48046875 33.75390625 C-59.694755 31.39205352 -62.50934488 28.37244604 -64.98046875 24.25390625 C-66.14868085 18.41284573 -65.79523624 13.93258096 -62.9296875 8.734375 C-48.62329434 -10.81641027 -19.32269764 -11.28807666 0 0 Z " fill="#EE4B38" transform="translate(282.48046875,151.24609375)"/>
<path d="M0 0 C19.47 0 38.94 0 59 0 C60.98 6.6 62.96 13.2 65 20 C66.11532871 23.43679578 67.23263741 26.84741041 68.4375 30.25 C68.72117432 31.05791992 69.00484863 31.86583984 69.29711914 32.69824219 C72.1379287 40.64035743 75.47968893 48.33877592 79 56 C73.66944172 55.40115564 69.32969297 53.63135989 64.5 51.4375 C63.70899902 51.08034912 62.91799805 50.72319824 62.10302734 50.35522461 C38.11107926 39.33575138 14.78549134 22.178237 0 0 Z " fill="#23AAE6" transform="translate(128,400)"/>
<path d="M0 0 C19.47 0 38.94 0 59 0 C50.36536812 11.51284251 41.43580572 21.25688045 30 30 C28.65228516 31.08861328 28.65228516 31.08861328 27.27734375 32.19921875 C16.11367109 40.99809693 3.64386881 47.68979913 -9.4375 53.1875 C-10.15317139 53.49123535 -10.86884277 53.7949707 -11.60620117 54.10791016 C-16.62412143 56.12529286 -16.62412143 56.12529286 -20 55 C-19.56864746 54.1339917 -19.13729492 53.2679834 -18.69287109 52.37573242 C-13.76852936 42.28185679 -10.07870184 31.98589677 -6.625 21.3125 C-6.08805688 19.68006949 -5.55029982 18.04790647 -5.01171875 16.41601562 C-2.30654839 8.26725907 -2.30654839 8.26725907 0 0 Z " fill="#23AAE6" transform="translate(325,400)"/>
<path d="M0 0 C-0.46148437 0.87914062 -0.92296875 1.75828125 -1.3984375 2.6640625 C-6.28620708 12.33411938 -9.98379762 22.2915288 -13.375 32.5625 C-13.69969269 33.54237885 -13.69969269 33.54237885 -14.03094482 34.54205322 C-16.27272714 41.33555888 -18.26243631 48.04974523 -20 55 C-39.47 55 -58.94 55 -79 55 C-66.85896103 38.81194804 -23.99860026 -7.99953342 0 0 Z " fill="#23AAE6" transform="translate(207,153)"/>
<path d="M0 0 C28.54033463 4.07719066 57.24642111 28.51516047 75 50 C76.32 51.98 77.64 53.96 79 56 C59.53 56 40.06 56 20 56 C17.69 48.08 15.38 40.16 13 32 C9.14952612 21.090324 4.73942895 10.54452831 0 0 Z " fill="#23AAE6" transform="translate(305,152)"/>
<path d="M0 0 C2.7952429 1.73926225 5.28554803 3.64420669 7.8125 5.75 C10.57702033 7.13226016 12.8586363 6.84525387 15.9375 6.8125 C17.03320312 6.80347656 18.12890625 6.79445312 19.2578125 6.78515625 C20.10085938 6.77355469 20.94390625 6.76195312 21.8125 6.75 C22.98650588 10.18503772 24.15043209 13.62340714 25.3125 17.0625 C25.64636719 18.03896484 25.98023438 19.01542969 26.32421875 20.02148438 C26.64003906 20.95927734 26.95585937 21.89707031 27.28125 22.86328125 C27.57451172 23.72735596 27.86777344 24.59143066 28.16992188 25.48168945 C28.8125 27.75 28.8125 27.75 28.8125 30.75 C5.0525 30.75 -18.7075 30.75 -43.1875 30.75 C-40.92472628 19.43613139 -40.92472628 19.43613139 -39.125 14.1875 C-38.78339844 13.17558594 -38.44179687 12.16367188 -38.08984375 11.12109375 C-37.1875 8.75 -37.1875 8.75 -36.1875 7.75 C-34.29343982 7.61744524 -32.39693588 7.51916391 -30.5 7.4375 C-25.23050005 7.03886171 -22.35454022 6.14177693 -18.1875 2.75 C-12.13769562 -1.52983763 -7.21925197 -2.83107921 0 0 Z " fill="#24A9E5" transform="translate(263.1875,177.25)"/>
<path d="M0 0 C9.95492657 0.19909853 19.80702435 5.3953817 26.8125 12.3125 C31.25013228 17.12860838 31.33944608 20.5357179 31.28515625 27.01171875 C30.80981716 31.99301195 28.58239469 34.60941073 24.9375 37.8125 C20.2929076 40.65918566 15.2781041 40.60932871 10 40 C6.625 38.1875 6.625 38.1875 4 36 C1.40350493 34.01444495 -1.0296692 32.37908216 -4 31 C-3.195625 30.6596875 -3.195625 30.6596875 -2.375 30.3125 C1.87752183 27.96242215 5.24879038 25.57071103 7.375 21.125 C8.63235291 14.83823546 8.46435829 10.49518901 5 5 C2.43802877 2.18643108 2.43802877 2.18643108 0 0 Z " fill="#DF332F" transform="translate(263,145)"/>
</svg>
